<svg width="18" height="18" viewBox="0 0 18 18" fill="none" xmlns="http://www.w3.org/2000/svg">
<g id="Group 358">
<g id="Vector">
<path d="M0.22465 1.26066C0.22465 0.564418 0.789069 0 1.48531 0H16.7393C17.4356 0 18 0.564418 18 1.26066C18 1.95691 17.4356 2.52133 16.7393 2.52133H1.48531C0.789068 2.52133 0.22465 1.95691 0.22465 1.26066Z" fill="#344767"/>
<path d="M0.22465 16.3886C0.22465 15.6924 0.789069 15.128 1.48531 15.128H16.7393C17.4356 15.128 18 15.6924 18 16.3886C18 17.0849 17.4356 17.6493 16.7393 17.6493H1.48531C0.789068 17.6493 0.22465 17.0849 0.22465 16.3886Z" fill="#344767"/>
<path d="M7.78863 6.30332C7.78863 5.60707 8.35305 5.04265 9.04929 5.04265H16.7393C17.4356 5.04265 18 5.60707 18 6.30332C18 6.99956 17.4356 7.56398 16.7393 7.56398H9.04929C8.35305 7.56398 7.78863 6.99956 7.78863 6.30332Z" fill="#344767"/>
<path d="M7.78863 11.346C7.78863 10.6497 8.35305 10.0853 9.04929 10.0853H16.7393C17.4356 10.0853 18 10.6497 18 11.346C18 12.0422 17.4356 12.6066 16.7393 12.6066H9.04929C8.35305 12.6066 7.78863 12.0422 7.78863 11.346Z" fill="#344767"/>
<path d="M0.246825 9.32488C-0.0822746 9.07258 -0.0822752 8.5767 0.246824 8.3244L4.34801 5.18024C4.76267 4.86235 5.36185 5.15799 5.36185 5.68048V11.9688C5.36185 12.4913 4.76267 12.7869 4.34801 12.469L0.246825 9.32488Z" fill="#344767"/>
</g>
</g>
</svg>
