<svg width="16" height="16" viewBox="0 0 16 16" fill="none" xmlns="http://www.w3.org/2000/svg">
<path d="M13.6162 0.822266C14.019 0.419502 14.6577 0.394355 15.0898 0.74707L15.1729 0.822266C15.5754 1.22484 15.6002 1.86284 15.248 2.29492L15.1729 2.37891L9.91016 7.64648L9.55664 8L9.91016 8.35352L15.1777 13.6162C15.5805 14.019 15.6056 14.6577 15.2529 15.0898L15.1777 15.1729C14.7752 15.5754 14.1372 15.6002 13.7051 15.248L13.6211 15.1729L8.35352 9.91016L8 9.55664L7.64648 9.91016L2.38379 15.1777C1.98103 15.5805 1.34227 15.6056 0.910156 15.2529L0.827148 15.1777C0.42463 14.7752 0.399776 14.1372 0.751953 13.7051L0.827148 13.6211L6.08984 8.35352L6.44336 8L6.08984 7.64648L0.822266 2.38379C0.419503 1.98103 0.394356 1.34227 0.74707 0.910156L0.822266 0.827148C1.22484 0.424629 1.86284 0.399775 2.29492 0.751953L2.37891 0.827148L7.64648 6.08984L8 6.44336L8.35352 6.08984L13.6162 0.822266Z" fill="#A0AEC0" stroke="#A0AEC0"/>
</svg>
